<svg width="47" height="47" viewBox="0 0 47 47" fill="none" xmlns="http://www.w3.org/2000/svg">
<rect x="46.5" y="46.5" width="46" height="46" rx="22.75" transform="rotate(-180 46.5 46.5)" fill="#007367"/>
<rect x="46.5" y="46.5" width="46" height="46" rx="22.75" transform="rotate(-180 46.5 46.5)" stroke="#007367"/>
<path d="M19.457 29.5645H27.543V27.543H19.457V29.5645ZM19.457 25.5215H27.543V23.5H19.457V25.5215ZM17.4355 33.6075C16.8796 33.6075 16.4037 33.4096 16.0078 33.0137C15.6119 32.6178 15.414 32.1419 15.414 31.586V15.414C15.414 14.8581 15.6119 14.3822 16.0078 13.9863C16.4037 13.5904 16.8796 13.3925 17.4355 13.3925H25.5215L31.586 19.457V31.586C31.586 32.1419 31.3881 32.6178 30.9922 33.0137C30.5963 33.4096 30.1204 33.6075 29.5645 33.6075H17.4355ZM24.5108 20.4677V15.414H17.4355V31.586H29.5645V20.4677H24.5108Z" fill="#EEFFF6"/>
</svg>
