<svg width="579" height="197" viewBox="0 0 579 197" fill="none" xmlns="http://www.w3.org/2000/svg">
<path d="M229.56 85.4014C218.548 85.4014 211.762 80.0237 211.762 70.4206C211.762 58.1286 224.054 55.4397 235.578 54.1593C244.54 53.135 247.87 52.7508 247.87 46.2207C247.87 39.5626 244.284 36.3615 236.218 36.3615C228.919 36.3615 224.054 39.0504 221.621 44.044L214.323 39.6906C217.908 32.0081 226.615 27.7827 237.498 27.7827C250.686 27.7827 258.369 34.4409 258.369 48.1413V84.121H248.126V74.6459C245.181 81.6882 238.651 85.4014 229.56 85.4014ZM231.864 77.7189C240.827 77.7189 247.998 72.7253 247.998 61.0735V56.208C246.077 59.537 243.132 60.1772 236.858 60.9455C229.688 61.8418 222.005 62.61 222.005 69.7803C222.005 74.6459 225.078 77.7189 231.864 77.7189ZM234.169 21.8928L215.091 6.52786L222.645 -0.0022514L240.443 21.8928H234.169ZM325.619 85.4014C309.357 85.4014 296.297 72.5973 296.297 56.9762C296.297 41.6112 308.973 27.7827 325.747 27.7827C335.862 27.7827 344.441 32.7764 348.666 42.3795L340.728 46.989C337.271 40.2028 331.893 36.7456 325.235 36.7456C314.735 36.7456 307.053 45.3244 307.053 56.9762C307.053 68.2438 314.223 76.4385 325.491 76.4385C333.045 76.4385 338.935 72.8533 341.24 66.4513L349.05 71.1888C345.337 79.2554 336.758 85.4014 325.619 85.4014ZM361.107 84.121V29.0632H364.564C368.406 29.0632 370.07 28.9351 371.607 28.2949V40.7149C374.552 31.8801 380.826 27.7827 388.38 27.7827C395.294 27.7827 400.032 31.1118 402.593 38.0261L394.142 43.6599C391.837 38.9224 389.532 36.7456 385.051 36.7456C377.368 36.7456 371.607 43.0197 371.607 54.4154V84.121H361.107ZM434.54 85.4014C417.254 85.4014 404.962 72.3412 404.962 56.8482C404.962 41.2271 417.51 27.7827 432.363 27.7827C446.96 27.7827 458.612 40.4588 458.612 58.5127H415.462C415.718 68.628 422.76 76.8226 434.54 76.8226C442.479 76.8226 447.472 73.1094 450.161 66.9634L457.972 71.1888C453.874 79.7676 445.808 85.4014 434.54 85.4014ZM431.979 35.7213C422.888 35.7213 416.614 43.0197 415.59 51.4704H448.368C447.344 43.0197 441.198 35.7213 431.979 35.7213ZM428.65 21.8928L446.448 -0.0022514L454.002 6.52786L434.924 21.8928H428.65ZM497.125 85.4014C479.84 85.4014 467.548 72.3412 467.548 56.8482C467.548 41.2271 480.096 27.7827 494.949 27.7827C509.545 27.7827 521.197 40.4588 521.197 58.5127H478.047C478.303 68.628 485.345 76.8226 497.125 76.8226C505.064 76.8226 510.057 73.1094 512.746 66.9634L520.557 71.1888C516.46 79.7676 508.393 85.4014 497.125 85.4014ZM494.564 35.7213C485.474 35.7213 479.199 43.0197 478.175 51.4704H510.954C509.929 43.0197 503.783 35.7213 494.564 35.7213ZM534.358 84.121V29.0632H537.815C541.657 29.0632 543.321 28.9351 544.858 28.2949V40.7149C547.803 31.8801 554.077 27.7827 561.631 27.7827C568.545 27.7827 573.283 31.1118 575.844 38.0261L567.393 43.6599C565.088 38.9224 562.784 36.7456 558.302 36.7456C550.62 36.7456 544.858 43.0197 544.858 54.4154V84.121H534.358ZM26.1167 195.437C12.4163 195.437 -0.00373389 182.249 -0.00373389 166.628C-0.00373389 151.007 12.4163 137.818 26.1167 137.818C35.7198 137.818 42.8902 143.836 46.0912 151.647V109.649H49.5483C53.3896 109.649 55.0541 109.521 56.5906 108.881V194.157H46.0912V181.609C42.8902 189.419 35.7198 195.437 26.1167 195.437ZM28.8056 186.474C37.6405 186.474 46.4753 178.279 46.4753 166.628C46.4753 154.976 37.6405 146.781 28.8056 146.781C18.8184 146.781 10.7517 154.976 10.7517 166.628C10.7517 178.279 18.8184 186.474 28.8056 186.474ZM98.7863 195.437C81.5007 195.437 69.2087 182.377 69.2087 166.884C69.2087 151.263 81.7567 137.818 96.6096 137.818C111.206 137.818 122.858 150.494 122.858 168.548H79.7081C79.9642 178.664 87.0064 186.858 98.7863 186.858C106.725 186.858 111.718 183.145 114.407 176.999L122.218 181.224C118.121 189.803 110.054 195.437 98.7863 195.437ZM96.2254 145.757C87.1345 145.757 80.8605 153.055 79.8361 161.506H112.615C111.59 153.055 105.444 145.757 96.2254 145.757ZM160.842 194.157V109.649H164.299C168.141 109.649 169.805 109.521 171.342 108.881V194.157H160.842ZM202.236 195.437C191.224 195.437 184.438 190.059 184.438 180.456C184.438 168.164 196.73 165.475 208.254 164.195C217.217 163.171 220.546 162.786 220.546 156.256C220.546 149.598 216.961 146.397 208.894 146.397C201.596 146.397 196.73 149.086 194.297 154.08L186.999 149.726C190.584 142.044 199.291 137.818 210.174 137.818C223.363 137.818 231.045 144.477 231.045 158.177V194.157H220.802V184.682C217.857 191.724 211.327 195.437 202.236 195.437ZM204.541 187.755C213.503 187.755 220.674 182.761 220.674 171.109V166.244C218.753 169.573 215.808 170.213 209.534 170.981C202.364 171.877 194.681 172.646 194.681 179.816C194.681 184.682 197.754 187.755 204.541 187.755ZM289.716 185.194L293.685 181.096C302.904 171.621 311.227 157.537 311.227 151.519C311.227 150.238 310.587 149.342 308.922 147.806C306.618 145.757 305.721 144.092 305.721 142.044C305.721 139.355 307.898 137.69 310.587 137.69C314.812 137.69 317.757 141.788 317.757 145.245C317.757 150.751 314.172 158.177 309.691 165.091C303.929 174.054 296.758 182.249 294.454 184.682C287.411 192.236 283.954 196.461 281.778 196.461C281.009 196.461 280.625 195.181 280.625 193.004V189.931C280.625 181.096 279.217 164.067 277.552 154.336C275.888 144.605 274.479 142.428 269.742 142.428C268.461 142.428 267.181 142.428 265.772 142.556V140.891C271.534 139.995 276.016 139.099 280.113 138.203C281.137 137.818 282.034 137.69 282.674 137.69C283.826 137.69 283.826 138.459 286.515 152.287C288.18 160.866 288.948 167.908 289.716 185.194ZM375.077 179.944L376.741 181.352C367.138 193.004 364.065 195.437 358.944 195.437C355.358 195.437 353.822 193.901 353.822 190.187C353.822 186.986 354.078 185.962 356.767 175.463C347.164 189.931 339.737 195.565 330.774 195.565C323.604 195.565 317.97 190.443 317.97 180.712C317.97 160.866 337.561 137.69 354.59 137.69C360.096 137.69 363.809 140.379 364.833 145.117L366.242 138.971L366.626 138.587L374.437 137.69L375.333 138.074C375.077 139.227 374.949 139.483 374.565 140.763C368.547 162.658 363.169 184.682 363.169 187.242C363.169 188.139 363.937 188.907 364.961 188.907C366.114 188.907 367.778 187.883 371.62 183.657L375.077 179.944ZM362.529 147.934C362.529 143.452 359.84 140.507 355.358 140.507C349.596 140.507 343.963 144.477 338.585 152.287C333.207 160.354 328.726 171.749 328.726 179.816C328.726 186.858 331.799 189.291 336.408 189.291C342.81 189.291 348.828 182.249 352.669 176.743C358.687 168.036 362.529 157.025 362.529 147.934ZM413.102 107.345L393.512 182.249C392.871 184.554 392.487 186.73 392.487 187.755C392.487 189.291 393.384 190.059 394.664 190.059C396.585 190.059 399.53 188.011 403.243 182.761L406.444 178.279L408.236 179.56C400.554 191.724 395.816 195.565 388.902 195.565C384.805 195.565 382.628 193.132 382.628 188.395C382.628 187.37 382.756 185.834 383.14 184.554L400.682 117.46C401.066 116.179 401.066 115.411 401.066 115.027C401.066 113.49 398.889 112.21 394.792 112.21H392.487V110.161C400.042 109.265 404.779 108.369 412.334 106.704L413.102 107.345ZM456.293 180.2L457.83 181.737C450.531 190.7 442.337 195.565 431.709 195.565C421.338 195.565 414.423 188.651 414.423 178.023C414.423 158.177 433.502 137.69 452.708 137.69C459.494 137.69 463.207 141.019 463.207 146.397C463.207 157.409 449.763 167.396 426.844 170.341C425.563 172.902 425.563 176.231 425.563 178.151C425.563 185.194 430.301 189.803 437.471 189.803C443.105 189.803 447.074 187.755 456.293 180.2ZM429.917 161.89L427.74 167.524C438.751 164.835 443.617 162.53 448.354 158.049C452.324 154.208 454.757 149.598 454.757 145.629C454.757 142.556 453.86 140.635 450.275 140.635C442.977 140.635 434.27 150.494 429.917 161.89ZM523.814 178.92L525.606 180.072C517.284 192.748 513.955 195.309 507.937 195.309C504.095 195.309 501.791 193.132 501.791 189.163C501.791 186.346 503.455 177.767 507.553 163.939C492.444 188.779 486.042 195.565 476.951 195.565C472.469 195.565 470.164 193.516 470.164 188.779C470.164 186.346 471.317 181.737 473.622 172.39L478.103 154.592C479.127 150.366 479.896 147.037 479.896 146.013C479.896 145.117 479.255 144.092 478.487 143.708C477.335 143.068 476.951 142.94 472.085 142.94V141.147C479.383 140.251 483.993 139.355 491.291 137.69L491.803 138.074L480.408 183.529C480.28 183.913 480.024 185.066 480.024 185.578C480.024 187.498 480.664 188.779 482.585 188.779C486.938 188.779 492.828 181.993 500.766 169.957C506.784 160.866 508.577 156 514.851 138.843H524.326L514.211 177.127C513.571 179.56 511.778 185.578 511.778 187.114C511.778 188.523 512.29 189.291 513.186 189.291C515.235 189.291 517.284 187.498 523.814 178.92ZM548.782 165.603L550.831 161.122C553.263 155.744 557.617 148.958 562.867 143.452C566.196 139.995 570.037 137.69 572.982 137.69C576.567 137.69 579 140.379 579 144.22C579 148.062 576.823 151.135 572.982 151.135C570.677 151.135 569.653 149.726 568.5 147.806C567.732 146.525 567.348 146.013 566.452 146.013C564.147 146.013 560.562 150.238 555.952 158.049C550.447 167.524 548.142 172.646 541.74 194.157H532.009L542.38 156.769C544.173 150.11 544.429 148.958 544.429 146.269C544.429 143.58 542.124 142.94 539.563 142.94C538.539 142.94 537.514 143.068 535.594 143.324V141.147L555.44 137.69L555.824 137.946L548.782 165.603Z" fill="white"/>
</svg>
