<svg width="182" height="50" viewBox="0 0 182 50" fill="none" xmlns="http://www.w3.org/2000/svg">
<rect x="50" y="50" width="50" height="50" rx="25" transform="rotate(-180 50 50)" fill="white"/>
<path d="M25.1875 30.0328L19.1875 24.0328L20.5875 22.6328L25.1875 27.2328L29.7875 22.6328L31.1875 24.0328L25.1875 30.0328Z" fill="#007367"/>
<path d="M64.1562 11.9062H69.7559C74.9751 11.9062 77.7115 13.6343 77.7115 16.8464C77.7115 19.1484 76.31 20.8162 73.5101 21.3014V21.3616C76.8839 21.7263 78.8878 23.5146 78.8878 26.3334C78.8878 29.8784 75.7678 31.9109 70.0413 31.9109H64.1562V11.9062ZM67.0195 20.4516H70.4567C73.3199 20.4516 74.8482 19.3006 74.8482 17.2078C74.8482 15.1151 73.2565 14.0244 69.6608 14.0244H67.0195V20.4484V20.4516ZM70.0762 29.7865C74.1506 29.7865 76.0278 28.515 76.0278 26.0576C76.0278 23.6002 74.3409 22.4207 70.4915 22.4207H67.0227V29.7865H70.0793H70.0762Z" fill="white"/>
<path d="M80.9766 25.4588C80.9766 21.7616 83.6178 18.5781 87.7875 18.5781C91.9571 18.5781 94.313 21.5777 94.313 25.852H83.5893C83.6527 28.2459 85.403 30.1865 88.3297 30.1865C90.3019 30.1865 91.5449 29.3081 92.2107 27.8527L94.1513 28.8516C93.2 30.5701 91.7637 32.2158 88.3265 32.2158C83.6178 32.2158 80.9766 29.1242 80.9766 25.4556V25.4588ZM83.6178 24.1841H91.7637C91.51 22.1833 89.9817 20.4552 87.6892 20.4552C85.3967 20.4552 83.8715 22.1833 83.6147 24.1841H83.6178Z" fill="white"/>
<path d="M96.5156 28.6708C96.5156 25.76 99.5723 25.1258 102.436 24.8215C104.665 24.5805 105.492 24.4885 105.492 22.9412C105.492 21.3938 104.601 20.6074 102.597 20.6074C100.784 20.6074 99.5755 21.2448 98.9698 22.4275L97.1561 21.397C98.0471 19.5769 100.213 18.5781 102.917 18.5781C106.196 18.5781 108.105 20.154 108.105 23.3978V31.9146H105.559V29.6728C104.826 31.3406 103.203 32.219 100.945 32.219C98.2088 32.219 96.522 30.9475 96.522 28.674L96.5156 28.6708ZM105.524 26.4576V25.3066C105.045 26.0961 104.316 26.2451 102.756 26.4291C100.974 26.6415 99.065 26.8222 99.065 28.5218C99.065 29.6728 99.8291 30.4021 101.516 30.4021C103.745 30.4021 105.527 29.2194 105.527 26.4608L105.524 26.4576Z" fill="white"/>
<path d="M112.775 26.9686V20.8172H110.102V19.1208H110.45C112.743 19.1208 113.25 18.0586 113.25 16.394V14.7578H115.381V18.8799H120.759V20.8204H115.381V27.3079C115.381 29.3372 116.43 30.1584 117.705 30.1584C118.818 30.1584 119.614 29.6416 120.156 28.8869L121.938 30.038C121.174 31.4331 119.582 32.2195 117.705 32.2195C114.683 32.2195 112.771 30.1584 112.771 26.9749L112.775 26.9686Z" fill="white"/>
<path d="M124.409 18.8767H127.019V31.9088H124.409V18.8767ZM127.228 14.7547C127.228 15.5886 126.55 16.2671 125.716 16.2671C124.882 16.2671 124.203 15.5886 124.203 14.7547C124.203 13.9207 124.882 13.2422 125.716 13.2422C126.55 13.2422 127.228 13.9207 127.228 14.7547Z" fill="white"/>
<path d="M130.086 18.8794H132.696V21.5175C133.46 19.6974 135.178 18.5781 137.629 18.5781C139.953 18.5781 141.479 19.7291 142.021 21.7014C142.785 19.7608 144.599 18.5781 147.177 18.5781C150.103 18.5781 151.79 20.3982 151.79 23.3375V31.9146H149.181V23.7022C149.181 21.6094 148.29 20.7628 146.412 20.7628C143.866 20.7628 142.243 22.2785 142.243 24.9768V31.9177H139.633V23.7053C139.633 21.6126 138.742 20.766 136.865 20.766C134.319 20.766 132.696 22.2816 132.696 24.98V31.9209H130.086V18.8889V18.8794Z" fill="white"/>
<path d="M154.062 25.3907C154.062 21.7538 156.735 18.5703 161.159 18.5703C165.582 18.5703 168.255 21.7538 168.255 25.3907C168.255 29.0276 165.582 32.2111 161.159 32.2111C156.735 32.2111 154.062 29.0276 154.062 25.3907ZM165.582 25.3907C165.582 22.6321 163.642 20.6916 161.159 20.6916C158.676 20.6916 156.735 22.6321 156.735 25.3907C156.735 28.1493 158.676 30.0899 161.159 30.0899C163.642 30.0899 165.582 28.1493 165.582 25.3907Z" fill="white"/>
<path d="M171.836 6.7706V4.19907C171.836 4.11663 171.903 4.04688 171.988 4.04688H175.051C175.134 4.04688 175.203 4.11346 175.203 4.19907V6.7706C175.203 6.81182 175.187 6.84987 175.159 6.87841L173.64 8.39723C173.58 8.45747 173.485 8.45747 173.428 8.39723L171.883 6.87841C171.855 6.84987 171.839 6.81182 171.839 6.7706H171.836Z" fill="white"/>
<path d="M176.165 6.87768L177.982 5.06081C178.042 5.00056 178.137 5.00056 178.197 5.06081L180.363 7.22647C180.423 7.28672 180.423 7.38184 180.363 7.44209L178.543 9.26213C178.514 9.29067 178.476 9.30653 178.435 9.30653H176.288C176.206 9.30653 176.136 9.23994 176.136 9.15433L176.117 6.98866C176.117 6.94744 176.133 6.90939 176.162 6.88085L176.165 6.87768Z" fill="white"/>
<path d="M178.656 10.2188H181.228C181.31 10.2188 181.38 10.2853 181.38 10.3709V13.434C181.38 13.5164 181.313 13.5862 181.228 13.5862H178.656C178.615 13.5862 178.577 13.5703 178.548 13.5418L177.03 12.0229C176.969 11.9627 176.969 11.8676 177.03 11.8105L178.548 10.2663C178.577 10.2378 178.615 10.2219 178.656 10.2219V10.2188Z" fill="white"/>
<path d="M178.546 14.5476L180.363 16.3644C180.423 16.4247 180.423 16.5198 180.363 16.5801L178.197 18.7457C178.137 18.806 178.042 18.806 177.982 18.7457L176.162 16.9257C176.133 16.8971 176.117 16.8591 176.117 16.8179V14.6712C176.117 14.5888 176.184 14.519 176.269 14.519L178.435 14.5C178.476 14.5 178.514 14.5159 178.543 14.5444L178.546 14.5476Z" fill="white"/>
<path d="M175.203 17.039V19.6105C175.203 19.693 175.137 19.7627 175.051 19.7627H171.988C171.906 19.7627 171.836 19.6961 171.836 19.6105V17.039C171.836 16.9978 171.852 16.9597 171.88 16.9312L173.399 15.4124C173.459 15.3521 173.555 15.3521 173.612 15.4124L175.156 16.9312C175.184 16.9597 175.2 16.9978 175.2 17.039H175.203Z" fill="white"/>
<path d="M170.861 16.9288L169.044 18.7457C168.983 18.806 168.888 18.806 168.828 18.7457L166.662 16.5801C166.602 16.5198 166.602 16.4247 166.662 16.3644L168.482 14.5444C168.511 14.5159 168.549 14.5 168.59 14.5H170.737C170.819 14.5 170.889 14.5666 170.889 14.6522L170.908 16.8179C170.908 16.8591 170.892 16.8971 170.864 16.9257L170.861 16.9288Z" fill="white"/>
<path d="M168.388 13.5862H165.816C165.734 13.5862 165.664 13.5196 165.664 13.434V10.3709C165.664 10.2885 165.731 10.2188 165.816 10.2188H168.388C168.429 10.2188 168.467 10.2346 168.496 10.2631L170.014 11.782C170.075 11.8422 170.075 11.9373 170.014 11.9944L168.496 13.5386C168.467 13.5671 168.429 13.583 168.388 13.583V13.5862Z" fill="white"/>
<path d="M168.479 9.25896L166.662 7.44209C166.602 7.38184 166.602 7.28672 166.662 7.22647L168.828 5.06081C168.888 5.00056 168.983 5.00056 169.044 5.06081L170.864 6.88085C170.892 6.90939 170.908 6.94744 170.908 6.98866V9.1353C170.908 9.21774 170.842 9.2875 170.756 9.2875L168.59 9.30653C168.549 9.30653 168.511 9.29067 168.482 9.26213L168.479 9.25896Z" fill="white"/>
<path d="M64.1562 43.9647L64.8903 43.3338C65.4498 44.5004 66.7631 45.0836 68.1796 45.0836C69.8937 45.0836 70.8737 44.1512 70.8737 42.8696C70.8737 41.8856 70.2627 41.219 68.8105 40.8857L67.3424 40.5524C65.541 40.1517 64.6483 39.2192 64.6483 37.771C64.6483 36.0212 66.1521 34.6562 68.3582 34.6562C69.9334 34.6562 71.3657 35.3387 71.945 36.4735L71.1912 37.1044C70.6833 36.037 69.5485 35.5212 68.3224 35.5212C66.6956 35.5212 65.7354 36.4695 65.7354 37.7194C65.7354 38.8026 66.402 39.4335 67.7471 39.7192L69.235 40.0366C70.965 40.4016 71.9649 41.3698 71.9649 42.8339C71.9649 44.6154 70.4412 45.9486 68.1161 45.9486C66.3504 45.9486 64.7594 45.2146 64.1642 43.9647H64.1562Z" fill="white"/>
<path d="M73.2812 42.2605C73.2812 40.229 74.8565 38.5625 76.8681 38.5625C78.8798 38.5625 80.3479 40.1615 80.3479 42.3914H74.2613C74.297 43.9071 75.4001 45.157 77.1141 45.157C78.2688 45.157 79.0742 44.6412 79.5107 43.7087L80.2447 44.0936C79.6853 45.2443 78.5822 45.9267 77.1141 45.9267C74.8922 45.9267 73.2852 44.2603 73.2852 42.2645L73.2812 42.2605ZM74.2613 41.7605H79.4036C79.2806 40.4115 78.2846 39.2807 76.8324 39.2807C75.3802 39.2807 74.3843 40.4115 74.2613 41.7605Z" fill="white"/>
<path d="M82.1562 38.6974H82.4697C82.8387 38.6974 82.9935 38.6815 83.1363 38.6141V40.3123C83.5053 39.1458 84.3941 38.5625 85.4971 38.5625C86.4772 38.5625 87.0882 39.0109 87.4056 39.8957L86.6002 40.3956C86.2867 39.6616 85.9019 39.364 85.2194 39.364C84.0132 39.364 83.1363 40.2448 83.1363 41.828V45.7918H82.1562V38.6974Z" fill="white"/>
<path d="M87.5625 38.7031H88.5783L91.1851 44.7501L93.8277 38.7031H94.7204L91.5898 45.7976H90.7169L87.5704 38.7031H87.5625Z" fill="white"/>
<path d="M95.8203 36.1983C95.8203 35.7976 96.1338 35.5 96.5544 35.5C96.9749 35.5 97.3082 35.8016 97.3082 36.1983C97.3082 36.5951 96.9948 36.8967 96.5544 36.8967C96.1139 36.8967 95.8203 36.5951 95.8203 36.1983ZM96.0663 38.698H97.0464V45.7925H96.0663V38.698Z" fill="white"/>
<path d="M98.8672 42.2842C98.8672 40.2844 100.494 38.5703 102.716 38.5703C104.117 38.5703 105.236 39.2528 105.743 40.4868L105.009 40.9034C104.553 39.9035 103.752 39.3718 102.664 39.3718C101.038 39.3718 99.8671 40.6375 99.8671 42.2881C99.8671 43.9387 101.006 45.137 102.664 45.137C103.783 45.137 104.676 44.6371 105.077 43.6888L105.811 44.1054C105.267 45.2045 104.132 45.9385 102.68 45.9385C100.546 45.9385 98.8672 44.3078 98.8672 42.2921V42.2842Z" fill="white"/>
<path d="M106.727 42.2605C106.727 40.229 108.302 38.5625 110.313 38.5625C112.325 38.5625 113.793 40.1615 113.793 42.3914H107.707C107.742 43.9071 108.845 45.157 110.559 45.157C111.714 45.157 112.52 44.6412 112.956 43.7087L113.69 44.0936C113.131 45.2443 112.028 45.9267 110.559 45.9267C108.337 45.9267 106.731 44.2603 106.731 42.2645L106.727 42.2605ZM107.707 41.7605H112.849C112.726 40.4115 111.73 39.2807 110.278 39.2807C108.826 39.2807 107.83 40.4115 107.707 41.7605Z" fill="white"/>
<path d="M114.859 44.7919L115.435 44.2087C115.855 44.7602 116.625 45.1927 117.831 45.1927C119.037 45.1927 119.859 44.7443 119.859 43.8754C119.859 43.2921 119.51 42.943 118.355 42.7446L117.129 42.5263C115.851 42.2922 115.189 41.6098 115.189 40.6615C115.189 39.3957 116.379 38.5625 118.006 38.5625C119.196 38.5625 120.176 39.0109 120.613 39.7449L120.037 40.3123C119.668 39.6973 118.883 39.2965 117.903 39.2965C116.851 39.2965 116.117 39.7449 116.117 40.6456C116.117 41.2606 116.486 41.6296 117.55 41.8121L118.688 42.0105C120.018 42.2446 120.787 42.8438 120.787 43.8436C120.787 45.1252 119.545 45.9267 117.744 45.9267C116.431 45.9267 115.332 45.4942 114.859 44.7959V44.7919Z" fill="white"/>
<path d="M122.406 41.3281H126.533V42.1098H122.406V41.3281Z" fill="white"/>
<path d="M128.312 42.2842C128.312 40.2844 129.939 38.5703 132.161 38.5703C133.562 38.5703 134.681 39.2528 135.189 40.4868L134.455 40.9034C133.998 39.9035 133.197 39.3718 132.11 39.3718C130.483 39.3718 129.312 40.6375 129.312 42.2881C129.312 43.9387 130.451 45.137 132.11 45.137C133.229 45.137 134.121 44.6371 134.522 43.6888L135.256 44.1054C134.713 45.2045 133.578 45.9385 132.126 45.9385C129.991 45.9385 128.312 44.3078 128.312 42.2921V42.2842Z" fill="white"/>
<path d="M136.156 42.2446C136.156 40.2607 137.854 38.5625 139.882 38.5625C141.91 38.5625 143.608 40.2607 143.608 42.2446C143.608 44.2285 141.929 45.9267 139.882 45.9267C137.835 45.9267 136.156 44.2285 136.156 42.2446ZM142.608 42.2446C142.608 40.594 141.418 39.364 139.878 39.364C138.339 39.364 137.148 40.598 137.148 42.2446C137.148 43.8913 138.339 45.1252 139.878 45.1252C141.418 45.1252 142.608 43.8754 142.608 42.2446Z" fill="white"/>
<path d="M145.438 38.6974H146.418V40.2964C146.854 39.1815 147.957 38.5625 149.286 38.5625C150.897 38.5625 151.806 39.3957 151.806 41.0622V45.7918H150.826V41.1773C150.826 39.8957 150.25 39.3799 149.04 39.3799C147.501 39.3799 146.418 40.2806 146.418 41.828V45.7918H145.438V38.6974Z" fill="white"/>
<path d="M153.43 44.7919L154.005 44.2087C154.426 44.7602 155.195 45.1927 156.402 45.1927C157.608 45.1927 158.429 44.7443 158.429 43.8754C158.429 43.2921 158.08 42.943 156.925 42.7446L155.699 42.5263C154.422 42.2922 153.759 41.6098 153.759 40.6615C153.759 39.3957 154.949 38.5625 156.576 38.5625C157.766 38.5625 158.747 39.0109 159.183 39.7449L158.608 40.3123C158.239 39.6973 157.453 39.2965 156.473 39.2965C155.425 39.2965 154.687 39.7449 154.687 40.6456C154.687 41.2606 155.056 41.6296 156.12 41.8121L157.259 42.0105C158.588 42.2446 159.358 42.8438 159.358 43.8436C159.358 45.1252 158.116 45.9267 156.314 45.9267C155.001 45.9267 153.902 45.4942 153.43 44.7959V44.7919Z" fill="white"/>
<path d="M160.531 42.2605C160.531 40.229 162.106 38.5625 164.118 38.5625C166.13 38.5625 167.598 40.1615 167.598 42.3914H161.511C161.547 43.9071 162.65 45.157 164.364 45.157C165.519 45.157 166.324 44.6412 166.761 43.7087L167.495 44.0936C166.935 45.2443 165.832 45.9267 164.364 45.9267C162.142 45.9267 160.535 44.2603 160.535 42.2645L160.531 42.2605ZM161.511 41.7605H166.654C166.531 40.4115 165.535 39.2807 164.082 39.2807C162.63 39.2807 161.634 40.4115 161.511 41.7605Z" fill="white"/>
<path d="M169.172 36.1983C169.172 35.7976 169.485 35.5 169.906 35.5C170.327 35.5 170.66 35.8016 170.66 36.1983C170.66 36.5951 170.346 36.8967 169.906 36.8967C169.465 36.8967 169.172 36.5951 169.172 36.1983ZM169.414 38.698H170.394V45.7925H169.414V38.698Z" fill="white"/>
<path d="M172.805 34.8047H173.785V45.7955H172.805V34.8047Z" fill="white"/>
<path d="M175.445 44.7919L176.021 44.2087C176.441 44.7602 177.211 45.1927 178.417 45.1927C179.623 45.1927 180.445 44.7443 180.445 43.8754C180.445 43.2921 180.096 42.943 178.941 42.7446L177.715 42.5263C176.437 42.2922 175.775 41.6098 175.775 40.6615C175.775 39.3957 176.965 38.5625 178.592 38.5625C179.782 38.5625 180.762 39.0109 181.199 39.7449L180.623 40.3123C180.254 39.6973 179.469 39.2965 178.489 39.2965C177.437 39.2965 176.703 39.7449 176.703 40.6456C176.703 41.2606 177.072 41.6296 178.135 41.8121L179.274 42.0105C180.603 42.2446 181.373 42.8438 181.373 43.8436C181.373 45.1252 180.131 45.9267 178.33 45.9267C177.017 45.9267 175.917 45.4942 175.445 44.7959V44.7919Z" fill="white"/>
</svg>
