<svg width="47" height="47" viewBox="0 0 47 47" fill="none" xmlns="http://www.w3.org/2000/svg">
<rect x="46.5" y="46.5" width="46" height="46" rx="22.75" transform="rotate(-180 46.5 46.5)" fill="#EEFFF6"/>
<rect x="46.5" y="46.5" width="46" height="46" rx="22.75" transform="rotate(-180 46.5 46.5)" stroke="#EEFFF6"/>
<path d="M15.414 31.586C14.8581 31.586 14.3822 31.3881 13.9863 30.9922C13.5904 30.5963 13.3925 30.1204 13.3925 29.5645V17.4355C13.3925 16.8796 13.5904 16.4037 13.9863 16.0078C14.3822 15.6119 14.8581 15.414 15.414 15.414H31.586C32.1419 15.414 32.6178 15.6119 33.0137 16.0078C33.4096 16.4037 33.6075 16.8796 33.6075 17.4355V29.5645C33.6075 30.1204 33.4096 30.5963 33.0137 30.9922C32.6178 31.3881 32.1419 31.586 31.586 31.586H15.414ZM23.5 24.5108L15.414 19.457V29.5645H31.586V19.457L23.5 24.5108ZM23.5 22.4892L31.586 17.4355H15.414L23.5 22.4892ZM15.414 19.457V17.4355V29.5645V19.457Z" fill="#007367"/>
</svg>
