<svg width="563" height="50" viewBox="0 0 563 50" fill="none" xmlns="http://www.w3.org/2000/svg">
<rect x="50" y="50" width="50" height="50" rx="25" transform="rotate(-180 50 50)" fill="white"/>
<path d="M25.1875 30.0328L19.1875 24.0328L20.5875 22.6328L25.1875 27.2328L29.7875 22.6328L31.1875 24.0328L25.1875 30.0328Z" fill="#EF8551"/>
<path d="M64.1484 10.1328H69.7481C74.9672 10.1328 77.7037 11.8609 77.7037 15.0729C77.7037 17.3749 76.3022 19.0428 73.5023 19.5279V19.5882C76.8761 19.9528 78.88 21.7412 78.88 24.56C78.88 28.105 75.7599 30.1375 70.0335 30.1375H64.1484V10.1328ZM67.0117 18.6781H70.4488C73.3121 18.6781 74.8404 17.5271 74.8404 15.4344C74.8404 13.3417 73.2487 12.2509 69.653 12.2509H67.0117V18.675V18.6781ZM70.0683 28.013C74.1428 28.013 76.02 26.7415 76.02 24.2841C76.02 21.8268 74.3331 20.6472 70.4837 20.6472H67.0149V28.013H70.0715H70.0683Z" fill="white"/>
<path d="M80.9688 23.6853C80.9688 19.9882 83.61 16.8047 87.7797 16.8047C91.9493 16.8047 94.3052 19.8043 94.3052 24.0785H83.5815C83.6449 26.4725 85.3952 28.413 88.3219 28.413C90.2941 28.413 91.5371 27.5347 92.2029 26.0793L94.1435 27.0781C93.1922 28.7967 91.7559 30.4423 88.3187 30.4423C83.61 30.4423 80.9688 27.3508 80.9688 23.6822V23.6853ZM83.61 22.4107H91.7558C91.5022 20.4099 89.9739 18.6818 87.6814 18.6818C85.3889 18.6818 83.8637 20.4099 83.6069 22.4107H83.61Z" fill="white"/>
<path d="M96.5078 26.8974C96.5078 23.9866 99.5645 23.3524 102.428 23.048C104.657 22.807 105.484 22.7151 105.484 21.1677C105.484 19.6204 104.593 18.834 102.589 18.834C100.776 18.834 99.5676 19.4713 98.962 20.6541L97.1483 19.6235C98.0393 17.8035 100.205 16.8047 102.91 16.8047C106.188 16.8047 108.097 18.3806 108.097 21.6243V30.1411H105.551V27.8994C104.819 29.5672 103.195 30.4455 100.937 30.4455C98.201 30.4455 96.5142 29.174 96.5142 26.9006L96.5078 26.8974ZM105.516 24.6842V23.5331C105.037 24.3227 104.308 24.4717 102.748 24.6556C100.966 24.8681 99.0571 25.0488 99.0571 26.7484C99.0571 27.8994 99.8213 28.6286 101.508 28.6286C103.737 28.6286 105.519 27.4459 105.519 24.6873L105.516 24.6842Z" fill="white"/>
<path d="M112.767 25.1952V19.0438H110.094V17.3474H110.443C112.735 17.3474 113.242 16.2852 113.242 14.6205V12.9844H115.373V17.1064H120.751V19.047H115.373V25.5344C115.373 27.5638 116.423 28.385 117.697 28.385C118.81 28.385 119.606 27.8682 120.148 27.1135L121.93 28.2645C121.166 29.6597 119.574 30.446 117.697 30.446C114.676 30.446 112.764 28.385 112.764 25.2015L112.767 25.1952Z" fill="white"/>
<path d="M124.401 17.1033H127.011V30.1353H124.401V17.1033ZM127.22 12.9812C127.22 13.8152 126.542 14.4937 125.708 14.4937C124.874 14.4937 124.195 13.8152 124.195 12.9812C124.195 12.1473 124.874 11.4688 125.708 11.4688C126.542 11.4688 127.22 12.1473 127.22 12.9812Z" fill="white"/>
<path d="M130.078 17.1059H132.688V19.744C133.452 17.924 135.17 16.8047 137.621 16.8047C139.946 16.8047 141.471 17.9557 142.013 19.9279C142.777 17.9874 144.591 16.8047 147.169 16.8047C150.095 16.8047 151.782 18.6247 151.782 21.5641V30.1411H149.173V21.9287C149.173 19.836 148.282 18.9894 146.405 18.9894C143.858 18.9894 142.235 20.505 142.235 23.2034V30.1443H139.625V21.9319C139.625 19.8392 138.734 18.9925 136.857 18.9925C134.311 18.9925 132.688 20.5082 132.688 23.2066V30.1475H130.078V17.1154V17.1059Z" fill="white"/>
<path d="M154.055 23.6173C154.055 19.9804 156.728 16.7969 161.151 16.7969C165.574 16.7969 168.247 19.9804 168.247 23.6173C168.247 27.2542 165.574 30.4377 161.151 30.4377C156.728 30.4377 154.055 27.2542 154.055 23.6173ZM165.574 23.6173C165.574 20.8587 163.634 18.9181 161.151 18.9181C158.668 18.9181 156.728 20.8587 156.728 23.6173C156.728 26.3759 158.668 28.3164 161.151 28.3164C163.634 28.3164 165.574 26.3759 165.574 23.6173Z" fill="white"/>
<path d="M171.828 4.99716V2.42564C171.828 2.3432 171.895 2.27344 171.98 2.27344H175.043C175.126 2.27344 175.196 2.34002 175.196 2.42564V4.99716C175.196 5.03839 175.18 5.07644 175.151 5.10497L173.632 6.62379C173.572 6.68404 173.477 6.68404 173.42 6.62379L171.876 5.10497C171.847 5.07644 171.831 5.03839 171.831 4.99716H171.828Z" fill="white"/>
<path d="M176.157 5.10425L177.974 3.28737C178.034 3.22713 178.129 3.22713 178.189 3.28737L180.355 5.45304C180.415 5.51328 180.415 5.60841 180.355 5.66865L178.535 7.4887C178.507 7.51723 178.468 7.53309 178.427 7.53309H176.281C176.198 7.53309 176.128 7.4665 176.128 7.38089L176.109 5.21522C176.109 5.174 176.125 5.13595 176.154 5.10742L176.157 5.10425Z" fill="white"/>
<path d="M178.648 8.44531H181.22C181.302 8.44531 181.372 8.5119 181.372 8.59751V11.6605C181.372 11.743 181.306 11.8127 181.22 11.8127H178.648C178.607 11.8127 178.569 11.7969 178.541 11.7683L177.022 10.2495C176.962 10.1893 176.962 10.0941 177.022 10.0371L178.541 8.49288C178.569 8.46434 178.607 8.44848 178.648 8.44848V8.44531Z" fill="white"/>
<path d="M178.538 12.7741L180.355 14.591C180.415 14.6512 180.415 14.7464 180.355 14.8066L178.189 16.9723C178.129 17.0325 178.034 17.0325 177.974 16.9723L176.154 15.1522C176.125 15.1237 176.109 15.0856 176.109 15.0444V12.8978C176.109 12.8153 176.176 12.7456 176.262 12.7456L178.427 12.7266C178.468 12.7266 178.507 12.7424 178.535 12.771L178.538 12.7741Z" fill="white"/>
<path d="M175.196 15.2656V17.8371C175.196 17.9195 175.129 17.9893 175.043 17.9893H171.98C171.898 17.9893 171.828 17.9227 171.828 17.8371V15.2656C171.828 15.2243 171.844 15.1863 171.873 15.1578L173.391 13.6389C173.452 13.5787 173.547 13.5787 173.604 13.6389L175.148 15.1578C175.177 15.1863 175.192 15.2243 175.192 15.2656H175.196Z" fill="white"/>
<path d="M170.853 15.1554L169.036 16.9723C168.976 17.0325 168.88 17.0325 168.82 16.9723L166.655 14.8066C166.594 14.7464 166.594 14.6512 166.655 14.591L168.475 12.771C168.503 12.7424 168.541 12.7266 168.582 12.7266H170.729C170.811 12.7266 170.881 12.7931 170.881 12.8788L170.9 15.0444C170.9 15.0856 170.884 15.1237 170.856 15.1522L170.853 15.1554Z" fill="white"/>
<path d="M168.38 11.8127H165.808C165.726 11.8127 165.656 11.7461 165.656 11.6605V8.59751C165.656 8.51507 165.723 8.44531 165.808 8.44531H168.38C168.421 8.44531 168.459 8.46117 168.488 8.4897L170.007 10.0085C170.067 10.0688 170.067 10.1639 170.007 10.221L168.488 11.7652C168.459 11.7937 168.421 11.8095 168.38 11.8095V11.8127Z" fill="white"/>
<path d="M168.471 7.48553L166.655 5.66865C166.594 5.60841 166.594 5.51328 166.655 5.45304L168.82 3.28737C168.88 3.22713 168.976 3.22713 169.036 3.28737L170.856 5.10742C170.884 5.13595 170.9 5.174 170.9 5.21522V7.36186C170.9 7.44431 170.834 7.51406 170.748 7.51406L168.582 7.53309C168.541 7.53309 168.503 7.51723 168.475 7.4887L168.471 7.48553Z" fill="white"/>
<path d="M64.5234 38.3326C64.5234 35.0684 66.8371 32.4453 69.9578 32.4453C72.0383 32.4453 73.657 33.4542 74.4058 35.3464L73.4776 35.8485C72.8589 34.1626 71.563 33.3645 69.904 33.3645C67.4245 33.3645 65.6937 35.4495 65.6937 38.3281C65.6937 41.2067 67.4245 43.2917 69.904 43.2917C71.563 43.2917 72.8589 42.4936 73.4776 40.8077L74.4058 41.3098C73.657 43.202 72.0339 44.2109 69.9578 44.2109C66.8416 44.2109 64.5234 41.5878 64.5234 38.3236V38.3326Z" fill="white"/>
<path d="M76.0514 42.2649C76.0514 40.7359 77.5265 40.2696 79.3694 40.0947C80.8087 39.9557 81.2661 39.8167 81.2661 38.8976C81.2661 37.8394 80.6832 37.3372 79.4053 37.3372C78.2753 37.3372 77.5086 37.7183 77.1454 38.4492L76.4146 38.0501C76.8719 37.0771 78.0556 36.5391 79.5308 36.5391C81.2974 36.5391 82.2839 37.3551 82.2839 39.0904V44.0719H81.2795V42.6819C80.8804 43.6549 79.894 44.2109 78.5264 44.2109C76.993 44.2109 76.0469 43.498 76.0469 42.2649H76.0514ZM81.2661 41.1709V40.023C80.9925 40.5073 80.5173 40.6462 79.4994 40.7539C78.0781 40.8929 77.0557 41.1709 77.0557 42.1932C77.0557 42.9913 77.6386 43.48 78.7506 43.48C80.2079 43.48 81.2661 42.6998 81.2661 41.1709Z" fill="white"/>
<path d="M84.3438 36.6781H84.6711C85.0522 36.6781 85.2181 36.6601 85.3661 36.5929V38.624C85.8772 37.4089 86.9533 36.5391 88.3926 36.5391C90.3969 36.5391 92.0739 38.3102 92.0739 40.3772C92.0739 42.4443 90.3969 44.2154 88.3926 44.2154C86.9533 44.2154 85.8772 43.3455 85.3661 42.1304V47.7217H84.3438V36.6781ZM91.0336 40.3772C91.0336 38.7092 89.814 37.3731 88.1729 37.3731C86.6978 37.3731 85.3481 38.6599 85.3481 40.3772C85.3481 42.0945 86.6978 43.3814 88.1729 43.3814C89.814 43.3814 91.0336 42.0452 91.0336 40.3772Z" fill="white"/>
<path d="M93.7266 34.059C93.7266 33.642 94.0539 33.3281 94.4933 33.3281C94.9327 33.3281 95.278 33.642 95.278 34.059C95.278 34.476 94.9506 34.7899 94.4933 34.7899C94.0359 34.7899 93.7266 34.476 93.7266 34.059ZM93.9821 36.6641H95.0045V44.0624H93.9821V36.6641Z" fill="white"/>
<path d="M97.8474 41.2783V37.4222H96.2422V36.7452H96.861C97.807 36.7452 98.0088 36.3103 98.0088 35.5839V34.2656H98.8652V36.66H102.04V37.4222H98.8652V41.3815C98.8652 42.8208 99.5782 43.3768 100.524 43.3768C101.143 43.3768 101.654 43.1346 101.999 42.6818L102.694 43.1526C102.273 43.8117 101.475 44.1928 100.524 44.1928C98.9011 44.1928 97.8429 43.1705 97.8429 41.2783H97.8474Z" fill="white"/>
<path d="M103.52 42.2649C103.52 40.7359 104.995 40.2696 106.838 40.0947C108.277 39.9557 108.735 39.8167 108.735 38.8976C108.735 37.8394 108.152 37.3372 106.874 37.3372C105.744 37.3372 104.977 37.7183 104.614 38.4492L103.883 38.0501C104.341 37.0771 105.524 36.5391 107 36.5391C108.766 36.5391 109.753 37.3551 109.753 39.0904V44.0719H108.748V42.6819C108.349 43.6549 107.363 44.2109 105.995 44.2109C104.462 44.2109 103.516 43.498 103.516 42.2649H103.52ZM108.735 41.1709V40.023C108.461 40.5073 107.986 40.6462 106.968 40.7539C105.547 40.8929 104.524 41.1709 104.524 42.1932C104.524 42.9913 105.107 43.48 106.219 43.48C107.677 43.48 108.735 42.6998 108.735 41.1709Z" fill="white"/>
<path d="M111.578 32.6016H112.6V44.0622H111.578V32.6016Z" fill="white"/>
</svg>
