<svg width="182" height="50" viewBox="0 0 182 50" fill="none" xmlns="http://www.w3.org/2000/svg">
<rect x="50" y="50" width="50" height="50" rx="25" transform="rotate(-180 50 50)" fill="white"/>
<path d="M25.1875 30.0328L19.1875 24.0328L20.5875 22.6328L25.1875 27.2328L29.7875 22.6328L31.1875 24.0328L25.1875 30.0328Z" fill="#007367"/>
<path d="M64.1523 11.9062H69.752C74.9711 11.9062 77.7076 13.6343 77.7076 16.8464C77.7076 19.1484 76.3061 20.8162 73.5062 21.3014V21.3616C76.88 21.7263 78.8839 23.5146 78.8839 26.3334C78.8839 29.8784 75.7639 31.9109 70.0374 31.9109H64.1523V11.9062ZM67.0156 20.4516H70.4527C73.316 20.4516 74.8443 19.3006 74.8443 17.2078C74.8443 15.1151 73.2526 14.0244 69.6569 14.0244H67.0156V20.4484V20.4516ZM70.0722 29.7865C74.1467 29.7865 76.0239 28.515 76.0239 26.0576C76.0239 23.6002 74.337 22.4207 70.4876 22.4207H67.0188V29.7865H70.0754H70.0722Z" fill="white"/>
<path d="M80.9766 25.4588C80.9766 21.7616 83.6178 18.5781 87.7875 18.5781C91.9571 18.5781 94.313 21.5777 94.313 25.852H83.5893C83.6527 28.2459 85.403 30.1865 88.3297 30.1865C90.3019 30.1865 91.5449 29.3081 92.2107 27.8527L94.1513 28.8516C93.2 30.5701 91.7637 32.2158 88.3265 32.2158C83.6178 32.2158 80.9766 29.1242 80.9766 25.4556V25.4588ZM83.6178 24.1841H91.7637C91.51 22.1833 89.9817 20.4552 87.6892 20.4552C85.3967 20.4552 83.8715 22.1833 83.6147 24.1841H83.6178Z" fill="white"/>
<path d="M96.5117 28.6708C96.5117 25.76 99.5684 25.1258 102.432 24.8215C104.661 24.5805 105.488 24.4885 105.488 22.9412C105.488 21.3938 104.597 20.6074 102.593 20.6074C100.78 20.6074 99.5716 21.2448 98.9659 22.4275L97.1522 21.397C98.0432 19.5769 100.209 18.5781 102.914 18.5781C106.192 18.5781 108.101 20.154 108.101 23.3978V31.9146H105.555V29.6728C104.822 31.3406 103.199 32.219 100.941 32.219C98.2049 32.219 96.5181 30.9475 96.5181 28.674L96.5117 28.6708ZM105.52 26.4576V25.3066C105.041 26.0961 104.312 26.2451 102.752 26.4291C100.97 26.6415 99.0611 26.8222 99.0611 28.5218C99.0611 29.6728 99.8252 30.4021 101.512 30.4021C103.741 30.4021 105.523 29.2194 105.523 26.4608L105.52 26.4576Z" fill="white"/>
<path d="M112.767 26.9686V20.8172H110.094V19.1208H110.443C112.735 19.1208 113.242 18.0586 113.242 16.394V14.7578H115.373V18.8799H120.751V20.8204H115.373V27.3079C115.373 29.3372 116.423 30.1584 117.697 30.1584C118.81 30.1584 119.606 29.6416 120.148 28.8869L121.93 30.038C121.166 31.4331 119.574 32.2195 117.697 32.2195C114.676 32.2195 112.764 30.1584 112.764 26.9749L112.767 26.9686Z" fill="white"/>
<path d="M124.409 18.8767H127.019V31.9088H124.409V18.8767ZM127.228 14.7547C127.228 15.5886 126.55 16.2671 125.716 16.2671C124.882 16.2671 124.203 15.5886 124.203 14.7547C124.203 13.9207 124.882 13.2422 125.716 13.2422C126.55 13.2422 127.228 13.9207 127.228 14.7547Z" fill="white"/>
<path d="M130.078 18.8794H132.688V21.5175C133.452 19.6974 135.17 18.5781 137.621 18.5781C139.946 18.5781 141.471 19.7291 142.013 21.7014C142.777 19.7608 144.591 18.5781 147.169 18.5781C150.095 18.5781 151.782 20.3982 151.782 23.3375V31.9146H149.173V23.7022C149.173 21.6094 148.282 20.7628 146.405 20.7628C143.858 20.7628 142.235 22.2785 142.235 24.9768V31.9177H139.625V23.7053C139.625 21.6126 138.734 20.766 136.857 20.766C134.311 20.766 132.688 22.2816 132.688 24.98V31.9209H130.078V18.8889V18.8794Z" fill="white"/>
<path d="M154.062 25.3907C154.062 21.7538 156.735 18.5703 161.159 18.5703C165.582 18.5703 168.255 21.7538 168.255 25.3907C168.255 29.0276 165.582 32.2111 161.159 32.2111C156.735 32.2111 154.062 29.0276 154.062 25.3907ZM165.582 25.3907C165.582 22.6321 163.642 20.6916 161.159 20.6916C158.676 20.6916 156.735 22.6321 156.735 25.3907C156.735 28.1493 158.676 30.0899 161.159 30.0899C163.642 30.0899 165.582 28.1493 165.582 25.3907Z" fill="white"/>
<path d="M171.84 6.7706V4.19907C171.84 4.11663 171.906 4.04688 171.992 4.04688H175.055C175.137 4.04688 175.207 4.11346 175.207 4.19907V6.7706C175.207 6.81182 175.191 6.84987 175.163 6.87841L173.644 8.39723C173.584 8.45747 173.489 8.45747 173.432 8.39723L171.887 6.87841C171.859 6.84987 171.843 6.81182 171.843 6.7706H171.84Z" fill="white"/>
<path d="M176.165 6.87768L177.982 5.06081C178.042 5.00056 178.137 5.00056 178.197 5.06081L180.363 7.22647C180.423 7.28672 180.423 7.38184 180.363 7.44209L178.543 9.26213C178.514 9.29067 178.476 9.30653 178.435 9.30653H176.288C176.206 9.30653 176.136 9.23994 176.136 9.15433L176.117 6.98866C176.117 6.94744 176.133 6.90939 176.162 6.88085L176.165 6.87768Z" fill="white"/>
<path d="M178.652 10.2188H181.224C181.306 10.2188 181.376 10.2853 181.376 10.3709V13.434C181.376 13.5164 181.309 13.5862 181.224 13.5862H178.652C178.611 13.5862 178.573 13.5703 178.544 13.5418L177.026 12.0229C176.965 11.9627 176.965 11.8676 177.026 11.8105L178.544 10.2663C178.573 10.2378 178.611 10.2219 178.652 10.2219V10.2188Z" fill="white"/>
<path d="M178.546 14.5476L180.363 16.3644C180.423 16.4247 180.423 16.5198 180.363 16.5801L178.197 18.7457C178.137 18.806 178.042 18.806 177.982 18.7457L176.162 16.9257C176.133 16.8971 176.117 16.8591 176.117 16.8179V14.6712C176.117 14.5888 176.184 14.519 176.269 14.519L178.435 14.5C178.476 14.5 178.514 14.5159 178.543 14.5444L178.546 14.5476Z" fill="white"/>
<path d="M175.207 17.039V19.6105C175.207 19.693 175.141 19.7627 175.055 19.7627H171.992C171.91 19.7627 171.84 19.6961 171.84 19.6105V17.039C171.84 16.9978 171.856 16.9597 171.884 16.9312L173.403 15.4124C173.463 15.3521 173.558 15.3521 173.615 15.4124L175.16 16.9312C175.188 16.9597 175.204 16.9978 175.204 17.039H175.207Z" fill="white"/>
<path d="M170.864 16.9288L169.048 18.7457C168.987 18.806 168.892 18.806 168.832 18.7457L166.666 16.5801C166.606 16.5198 166.606 16.4247 166.666 16.3644L168.486 14.5444C168.515 14.5159 168.553 14.5 168.594 14.5H170.741C170.823 14.5 170.893 14.5666 170.893 14.6522L170.912 16.8179C170.912 16.8591 170.896 16.8971 170.868 16.9257L170.864 16.9288Z" fill="white"/>
<path d="M168.388 13.5862H165.816C165.734 13.5862 165.664 13.5196 165.664 13.434V10.3709C165.664 10.2885 165.731 10.2188 165.816 10.2188H168.388C168.429 10.2188 168.467 10.2346 168.496 10.2631L170.014 11.782C170.075 11.8422 170.075 11.9373 170.014 11.9944L168.496 13.5386C168.467 13.5671 168.429 13.583 168.388 13.583V13.5862Z" fill="white"/>
<path d="M168.483 9.25896L166.666 7.44209C166.606 7.38184 166.606 7.28672 166.666 7.22647L168.832 5.06081C168.892 5.00056 168.987 5.00056 169.048 5.06081L170.868 6.88085C170.896 6.90939 170.912 6.94744 170.912 6.98866V9.1353C170.912 9.21774 170.845 9.2875 170.76 9.2875L168.594 9.30653C168.553 9.30653 168.515 9.29067 168.486 9.26213L168.483 9.25896Z" fill="white"/>
<path d="M64.1523 43.9647L64.8864 43.3338C65.4458 44.5004 66.7592 45.0836 68.1757 45.0836C69.8898 45.0836 70.8698 44.1512 70.8698 42.8696C70.8698 41.8856 70.2588 41.219 68.8066 40.8857L67.3385 40.5524C65.5371 40.1517 64.6444 39.2192 64.6444 37.771C64.6444 36.0212 66.1481 34.6562 68.3542 34.6562C69.9295 34.6562 71.3618 35.3387 71.9411 36.4735L71.1873 37.1044C70.6794 36.037 69.5446 35.5212 68.3185 35.5212C66.6917 35.5212 65.7315 36.4695 65.7315 37.7194C65.7315 38.8026 66.3981 39.4335 67.7432 39.7192L69.2311 40.0366C70.9611 40.4016 71.961 41.3698 71.961 42.8339C71.961 44.6154 70.4373 45.9486 68.1122 45.9486C66.3465 45.9486 64.7554 45.2146 64.1603 43.9647H64.1523Z" fill="white"/>
<path d="M73.2773 42.2605C73.2773 40.229 74.8526 38.5625 76.8642 38.5625C78.8759 38.5625 80.344 40.1615 80.344 42.3914H74.2574C74.2931 43.9071 75.3961 45.157 77.1102 45.157C78.2649 45.157 79.0703 44.6412 79.5068 43.7087L80.2408 44.0936C79.6814 45.2443 78.5783 45.9267 77.1102 45.9267C74.8883 45.9267 73.2813 44.2603 73.2813 42.2645L73.2773 42.2605ZM74.2574 41.7605H79.3997C79.2767 40.4115 78.2807 39.2807 76.8285 39.2807C75.3763 39.2807 74.3804 40.4115 74.2574 41.7605Z" fill="white"/>
<path d="M82.1523 38.6974H82.4658C82.8348 38.6974 82.9895 38.6815 83.1324 38.6141V40.3123C83.5014 39.1458 84.3902 38.5625 85.4932 38.5625C86.4733 38.5625 87.0843 39.0109 87.4017 39.8957L86.5963 40.3956C86.2828 39.6616 85.8979 39.364 85.2155 39.364C84.0093 39.364 83.1324 40.2448 83.1324 41.828V45.7918H82.1523V38.6974Z" fill="white"/>
<path d="M87.5547 38.7031H88.5704L91.1773 44.7501L93.8198 38.7031H94.7126L91.582 45.7976H90.7091L87.5626 38.7031H87.5547Z" fill="white"/>
<path d="M95.8164 36.1983C95.8164 35.7976 96.1299 35.5 96.5504 35.5C96.971 35.5 97.3043 35.8016 97.3043 36.1983C97.3043 36.5951 96.9909 36.8967 96.5504 36.8967C96.11 36.8967 95.8164 36.5951 95.8164 36.1983ZM96.0624 38.698H97.0425V45.7925H96.0624V38.698Z" fill="white"/>
<path d="M98.8672 42.2842C98.8672 40.2844 100.494 38.5703 102.716 38.5703C104.117 38.5703 105.236 39.2528 105.743 40.4868L105.009 40.9034C104.553 39.9035 103.752 39.3718 102.664 39.3718C101.038 39.3718 99.8671 40.6375 99.8671 42.2881C99.8671 43.9387 101.006 45.137 102.664 45.137C103.783 45.137 104.676 44.6371 105.077 43.6888L105.811 44.1054C105.267 45.2045 104.132 45.9385 102.68 45.9385C100.546 45.9385 98.8672 44.3078 98.8672 42.2921V42.2842Z" fill="white"/>
<path d="M106.719 42.2605C106.719 40.229 108.294 38.5625 110.306 38.5625C112.317 38.5625 113.785 40.1615 113.785 42.3914H107.699C107.735 43.9071 108.838 45.157 110.552 45.157C111.706 45.157 112.512 44.6412 112.948 43.7087L113.682 44.0936C113.123 45.2443 112.02 45.9267 110.552 45.9267C108.33 45.9267 106.723 44.2603 106.723 42.2645L106.719 42.2605ZM107.699 41.7605H112.841C112.718 40.4115 111.722 39.2807 110.27 39.2807C108.818 39.2807 107.822 40.4115 107.699 41.7605Z" fill="white"/>
<path d="M114.855 44.7919L115.431 44.2087C115.851 44.7602 116.621 45.1927 117.827 45.1927C119.034 45.1927 119.855 44.7443 119.855 43.8754C119.855 43.2921 119.506 42.943 118.351 42.7446L117.125 42.5263C115.847 42.2922 115.185 41.6098 115.185 40.6615C115.185 39.3957 116.375 38.5625 118.002 38.5625C119.192 38.5625 120.172 39.0109 120.609 39.7449L120.033 40.3123C119.664 39.6973 118.879 39.2965 117.899 39.2965C116.847 39.2965 116.113 39.7449 116.113 40.6456C116.113 41.2606 116.482 41.6296 117.546 41.8121L118.684 42.0105C120.014 42.2446 120.783 42.8438 120.783 43.8436C120.783 45.1252 119.541 45.9267 117.74 45.9267C116.427 45.9267 115.328 45.4942 114.855 44.7959V44.7919Z" fill="white"/>
<path d="M122.402 41.3281H126.529V42.1098H122.402V41.3281Z" fill="white"/>
<path d="M128.312 42.2842C128.312 40.2844 129.939 38.5703 132.161 38.5703C133.562 38.5703 134.681 39.2528 135.189 40.4868L134.455 40.9034C133.998 39.9035 133.197 39.3718 132.11 39.3718C130.483 39.3718 129.312 40.6375 129.312 42.2881C129.312 43.9387 130.451 45.137 132.11 45.137C133.229 45.137 134.121 44.6371 134.522 43.6888L135.256 44.1054C134.713 45.2045 133.578 45.9385 132.126 45.9385C129.991 45.9385 128.312 44.3078 128.312 42.2921V42.2842Z" fill="white"/>
<path d="M136.156 42.2446C136.156 40.2607 137.854 38.5625 139.882 38.5625C141.91 38.5625 143.608 40.2607 143.608 42.2446C143.608 44.2285 141.929 45.9267 139.882 45.9267C137.835 45.9267 136.156 44.2285 136.156 42.2446ZM142.608 42.2446C142.608 40.594 141.418 39.364 139.878 39.364C138.339 39.364 137.148 40.598 137.148 42.2446C137.148 43.8913 138.339 45.1252 139.878 45.1252C141.418 45.1252 142.608 43.8754 142.608 42.2446Z" fill="white"/>
<path d="M145.434 38.6974H146.414V40.2964C146.85 39.1815 147.953 38.5625 149.282 38.5625C150.893 38.5625 151.802 39.3957 151.802 41.0622V45.7918H150.822V41.1773C150.822 39.8957 150.247 39.3799 149.036 39.3799C147.497 39.3799 146.414 40.2806 146.414 41.828V45.7918H145.434V38.6974Z" fill="white"/>
<path d="M153.426 44.7919L154.001 44.2087C154.422 44.7602 155.191 45.1927 156.398 45.1927C157.604 45.1927 158.425 44.7443 158.425 43.8754C158.425 43.2921 158.076 42.943 156.921 42.7446L155.695 42.5263C154.418 42.2922 153.755 41.6098 153.755 40.6615C153.755 39.3957 154.945 38.5625 156.572 38.5625C157.763 38.5625 158.743 39.0109 159.179 39.7449L158.604 40.3123C158.235 39.6973 157.449 39.2965 156.469 39.2965C155.422 39.2965 154.684 39.7449 154.684 40.6456C154.684 41.2606 155.053 41.6296 156.116 41.8121L157.255 42.0105C158.584 42.2446 159.354 42.8438 159.354 43.8436C159.354 45.1252 158.112 45.9267 156.31 45.9267C154.997 45.9267 153.898 45.4942 153.426 44.7959V44.7919Z" fill="white"/>
<path d="M160.527 42.2605C160.527 40.229 162.103 38.5625 164.114 38.5625C166.126 38.5625 167.594 40.1615 167.594 42.3914H161.507C161.543 43.9071 162.646 45.157 164.36 45.157C165.515 45.157 166.32 44.6412 166.757 43.7087L167.491 44.0936C166.931 45.2443 165.828 45.9267 164.36 45.9267C162.138 45.9267 160.531 44.2603 160.531 42.2645L160.527 42.2605ZM161.507 41.7605H166.65C166.527 40.4115 165.531 39.2807 164.079 39.2807C162.626 39.2807 161.63 40.4115 161.507 41.7605Z" fill="white"/>
<path d="M169.168 36.1983C169.168 35.7976 169.481 35.5 169.902 35.5C170.323 35.5 170.656 35.8016 170.656 36.1983C170.656 36.5951 170.342 36.8967 169.902 36.8967C169.462 36.8967 169.168 36.5951 169.168 36.1983ZM169.41 38.698H170.39V45.7925H169.41V38.698Z" fill="white"/>
<path d="M172.801 34.8047H173.781V45.7955H172.801V34.8047Z" fill="white"/>
<path d="M175.445 44.7919L176.021 44.2087C176.441 44.7602 177.211 45.1927 178.417 45.1927C179.623 45.1927 180.445 44.7443 180.445 43.8754C180.445 43.2921 180.096 42.943 178.941 42.7446L177.715 42.5263C176.437 42.2922 175.775 41.6098 175.775 40.6615C175.775 39.3957 176.965 38.5625 178.592 38.5625C179.782 38.5625 180.762 39.0109 181.199 39.7449L180.623 40.3123C180.254 39.6973 179.469 39.2965 178.489 39.2965C177.437 39.2965 176.703 39.7449 176.703 40.6456C176.703 41.2606 177.072 41.6296 178.135 41.8121L179.274 42.0105C180.603 42.2446 181.373 42.8438 181.373 43.8436C181.373 45.1252 180.131 45.9267 178.33 45.9267C177.017 45.9267 175.917 45.4942 175.445 44.7959V44.7919Z" fill="white"/>
</svg>
