<svg width="47" height="47" viewBox="0 0 47 47" fill="none" xmlns="http://www.w3.org/2000/svg">
<rect x="46" y="46" width="45" height="45" rx="22.25" transform="rotate(-180 46 46)" stroke="#EEFFF6" stroke-width="2"/>
<path d="M18.8092 32.0914V20.4982H15.1259V32.0914H18.8092ZM16.9681 18.9144C18.2525 18.9144 19.052 18.0242 19.052 16.9117C19.0281 15.7741 18.2525 14.9086 16.9924 14.9086C15.7325 14.9086 14.9086 15.7741 14.9086 16.9117C14.9086 18.0242 15.7079 18.9144 16.944 18.9144H16.9679H16.9681ZM20.8479 32.0914H24.5313V25.6172C24.5313 25.2707 24.5552 24.9246 24.6524 24.6769C24.9187 23.9846 25.5248 23.2676 26.5423 23.2676C27.8751 23.2676 28.4083 24.3307 28.4083 25.8892V32.0913H32.0914V25.4439C32.0914 21.8829 30.2742 20.226 27.8508 20.226C25.8638 20.226 24.9914 21.388 24.5067 22.1793H24.5313V20.498H20.848C20.8964 21.5858 20.848 32.0912 20.848 32.0912L20.8479 32.0914Z" fill="#EEFFF6"/>
</svg>
