<svg width="47" height="47" viewBox="0 0 47 47" fill="none" xmlns="http://www.w3.org/2000/svg">
<rect x="46.5" y="46.5" width="46" height="46" rx="22.75" transform="rotate(-180 46.5 46.5)" fill="#007367"/>
<rect x="46.5" y="46.5" width="46" height="46" rx="22.75" transform="rotate(-180 46.5 46.5)" stroke="#007367"/>
<g clip-path="url(#clip0_4148_1586)">
<path d="M35.407 11.5911C35.5119 11.6962 35.5837 11.8298 35.6133 11.9754C35.643 12.1209 35.6292 12.272 35.5737 12.4098L26.7514 34.4649C26.6736 34.6591 26.5438 34.8282 26.3762 34.9534C26.2086 35.0786 26.0097 35.1551 25.8013 35.1745C25.593 35.194 25.3834 35.1555 25.1955 35.0635C25.0076 34.9715 24.8488 34.8294 24.7364 34.6529L19.9182 27.0798L12.3451 22.2616C12.1682 22.1494 12.0257 21.9905 11.9334 21.8024C11.8411 21.6143 11.8026 21.4044 11.822 21.1958C11.8415 20.9872 11.9182 20.7881 12.0437 20.6203C12.1691 20.4526 12.3385 20.3227 12.5331 20.2451L34.5882 11.4258C34.726 11.3703 34.8771 11.3566 35.0227 11.3862C35.1682 11.4159 35.3018 11.4876 35.407 11.5926V11.5911ZM21.4313 26.6371L25.6173 33.2141L32.7931 15.2753L21.4313 26.6371ZM31.7212 14.2034L13.7824 21.3792L20.3609 25.5637L31.7212 14.2034Z" fill="#EEFFF6"/>
</g>
<defs>
<clipPath id="clip0_4148_1586">
<rect width="24" height="24" fill="white" transform="translate(11.371 11.371) scale(1.01075)"/>
</clipPath>
</defs>
</svg>
